<svg width="18" height="20" viewBox="0 0 18 20" fill="none" xmlns="http://www.w3.org/2000/svg">
<path d="M9.00012 1V0.4V1ZM3.66679 6.40096H3.06679H3.66679ZM1.00012 14.5024L0.664397 14.0051C0.445798 14.1527 0.349209 14.4257 0.426376 14.6779C0.503543 14.9301 0.736368 15.1024 1.00012 15.1024L1.00012 14.5024ZM17.0001 14.5024V15.1024C17.2639 15.1024 17.4967 14.9301 17.5739 14.6779C17.651 14.4257 17.5544 14.1527 17.3358 14.0051L17.0001 14.5024ZM11.0585 18.4013C11.2232 18.1137 11.1237 17.7471 10.8361 17.5824C10.5486 17.4177 10.182 17.5173 10.0173 17.8048L11.0585 18.4013ZM7.98298 17.8048C7.81827 17.5173 7.45165 17.4177 7.16412 17.5824C6.87658 17.7471 6.777 18.1137 6.94171 18.4013L7.98298 17.8048ZM14.9335 6.40096C14.9335 4.81183 14.3102 3.28628 13.1983 2.16032L12.3444 3.00349C13.233 3.90328 13.7335 5.12524 13.7335 6.40096H14.9335ZM13.1983 2.16032C12.0862 1.0341 10.5762 0.4 9.00012 0.4V1.6C10.253 1.6 11.4562 2.10395 12.3444 3.00349L13.1983 2.16032ZM9.00012 0.4C7.42405 0.4 5.91407 1.0341 4.80196 2.16032L5.65581 3.00349C6.54409 2.10395 7.74722 1.6 9.00012 1.6V0.4ZM4.80196 2.16032C3.69009 3.28628 3.06679 4.81183 3.06679 6.40096L4.26679 6.40096C4.26679 5.12524 4.76729 3.90328 5.65581 3.00349L4.80196 2.16032ZM3.06679 6.40096C3.06679 9.46436 2.41933 11.3899 1.80521 12.5301C1.49737 13.1016 1.19479 13.4817 0.978631 13.7127C0.870397 13.8284 0.78342 13.9072 0.727743 13.9542C0.699895 13.9777 0.679856 13.9933 0.66888 14.0015C0.663392 14.0057 0.66017 14.008 0.65937 14.0086C0.65897 14.0088 0.659176 14.0087 0.660007 14.0081C0.660423 14.0078 0.660995 14.0074 0.661726 14.0069C0.662091 14.0067 0.662497 14.0064 0.662942 14.0061C0.663164 14.0059 0.663528 14.0057 0.663639 14.0056C0.664013 14.0054 0.664397 14.0051 1.00012 14.5024C1.33585 14.9997 1.33625 14.9994 1.33667 14.9991C1.33682 14.999 1.33724 14.9987 1.33755 14.9985C1.33815 14.9981 1.3388 14.9977 1.33949 14.9972C1.34087 14.9963 1.3424 14.9952 1.3441 14.994C1.3475 14.9917 1.35153 14.9888 1.35617 14.9855C1.36547 14.9789 1.37722 14.9703 1.39126 14.9597C1.41935 14.9386 1.4566 14.9093 1.50167 14.8713C1.59182 14.7952 1.71318 14.6841 1.85495 14.5325C2.13879 14.2291 2.50287 13.7653 2.8617 13.0991C3.58091 11.7638 4.26679 9.63867 4.26679 6.40096H3.06679ZM1.00012 15.1024H17.0001V13.9024H1.00012V15.1024ZM17.0001 14.5024C17.3358 14.0051 17.3362 14.0054 17.3366 14.0056C17.3367 14.0057 17.3371 14.0059 17.3373 14.0061C17.3377 14.0064 17.3382 14.0067 17.3385 14.0069C17.3392 14.0074 17.3398 14.0078 17.3402 14.0081C17.3411 14.0087 17.3413 14.0088 17.3409 14.0086C17.3401 14.008 17.3369 14.0057 17.3314 14.0015C17.3204 13.9933 17.3003 13.9777 17.2725 13.9542C17.2168 13.9072 17.1298 13.8284 17.0216 13.7127C16.8055 13.4817 16.5029 13.1016 16.195 12.5301C15.5809 11.3899 14.9335 9.46436 14.9335 6.40096H13.7335C13.7335 9.63867 14.4193 11.7638 15.1385 13.0991C15.4974 13.7653 15.8615 14.2291 16.1453 14.5325C16.2871 14.6841 16.4084 14.7952 16.4986 14.8713C16.5436 14.9093 16.5809 14.9386 16.609 14.9597C16.623 14.9703 16.6348 14.9789 16.6441 14.9855C16.6487 14.9888 16.6527 14.9917 16.6561 14.994C16.6578 14.9952 16.6594 14.9963 16.6608 14.9972C16.6614 14.9977 16.6621 14.9981 16.6627 14.9985C16.663 14.9987 16.6634 14.999 16.6636 14.9991C16.664 14.9994 16.6644 14.9997 17.0001 14.5024ZM10.0173 17.8048C9.91289 17.987 9.76361 18.1373 9.58513 18.2414L10.1897 19.278C10.551 19.0673 10.8504 18.7647 11.0585 18.4013L10.0173 17.8048ZM9.58513 18.2414C9.4067 18.3455 9.20499 18.4 9.00012 18.4V19.6C9.41815 19.6 9.82841 19.4888 10.1897 19.278L9.58513 18.2414ZM9.00012 18.4C8.79525 18.4 8.59355 18.3455 8.41512 18.2414L7.8105 19.278C8.17184 19.4888 8.58209 19.6 9.00012 19.6V18.4ZM8.41512 18.2414C8.23663 18.1373 8.08736 17.987 7.98298 17.8048L6.94171 18.4013C7.14989 18.7647 7.44923 19.0673 7.8105 19.278L8.41512 18.2414Z" fill="white"/>
</svg>
