<svg width="20" height="19" viewBox="0 0 20 19" fill="none" xmlns="http://www.w3.org/2000/svg">
<path d="M9.75 18.25C14.5825 18.25 18.5 14.3325 18.5 9.5C18.5 4.66751 14.5825 0.75 9.75 0.75C4.91751 0.75 1 4.66751 1 9.5C1 14.3325 4.91751 18.25 9.75 18.25Z" stroke="white" stroke-width="1.2" stroke-linecap="round" stroke-linejoin="round"/>
<path d="M7.20374 6.87501C7.40945 6.29022 7.81549 5.7971 8.34995 5.483C8.8844 5.1689 9.51277 5.05408 10.1238 5.15888C10.7348 5.26369 11.2889 5.58134 11.6882 6.0556C12.0874 6.52985 12.3059 7.13009 12.305 7.75001C12.305 9.50001 9.67998 10.375 9.67998 10.375" stroke="white" stroke-width="1.2" stroke-linecap="round" stroke-linejoin="round"/>
<path d="M9.75 13.875H9.75875" stroke="white" stroke-width="2" stroke-linecap="round" stroke-linejoin="round"/>
</svg>
