<svg width="20" height="20" viewBox="0 0 20 20" fill="none" xmlns="http://www.w3.org/2000/svg">
<path d="M16.0547 12.4545L16.5121 12.6564L16.5142 12.6515L16.0547 12.4545ZM16.3247 13.9436L15.9672 14.2933L15.9711 14.2972L16.3247 13.9436ZM16.3738 13.9927L16.0202 14.3463L16.0204 14.3465L16.3738 13.9927ZM16.3738 16.3082L16.0204 15.9544L16.02 15.9548L16.3738 16.3082ZM14.0583 16.3082L14.4121 15.9548L14.4119 15.9546L14.0583 16.3082ZM14.0092 16.2591L14.3628 15.9055L14.3588 15.9017L14.0092 16.2591ZM12.5201 15.9891L12.7171 16.4487L12.722 16.4465L12.5201 15.9891ZM11.7019 17.2245L11.2019 17.2226V17.2245H11.7019ZM8.42921 17.29H8.92935L8.92908 17.2783L8.42921 17.29ZM7.54558 16.0545L7.34369 16.512C7.35333 16.5162 7.3631 16.5202 7.37299 16.5238L7.54558 16.0545ZM6.05649 16.3245L5.70683 15.9671L5.70293 15.971L6.05649 16.3245ZM6.00739 16.3736L5.65384 16.0201L5.65364 16.0203L6.00739 16.3736ZM3.69194 16.3736L4.04569 16.0203L4.0453 16.0199L3.69194 16.3736ZM3.21202 15.2159H3.71202H3.21202ZM3.69194 14.0582L4.0453 14.4119L4.04549 14.4117L3.69194 14.0582ZM3.74103 14.0091L4.0946 14.3627L4.09846 14.3587L3.74103 14.0091ZM4.01103 12.52L3.55143 12.717L3.5536 12.7219L4.01103 12.52ZM2.77558 11.7018L2.77757 11.2018H2.77558V11.7018ZM1.00012 10.0655H0.500122H1.00012ZM2.63649 8.42909V8.92909V8.42909ZM2.71012 8.42909V8.92923L2.72181 8.92895L2.71012 8.42909ZM3.94558 7.54545L3.48815 7.34357C3.48389 7.35321 3.47994 7.36298 3.47631 7.37286L3.94558 7.54545ZM3.67558 6.05636L4.03303 5.70671L4.02913 5.70281L3.67558 6.05636ZM3.62649 6.00727L3.98004 5.65372L3.97984 5.65352L3.62649 6.00727ZM3.62649 3.69182L3.97984 4.04557L3.98024 4.04517L3.62649 3.69182ZM5.94194 3.69182L5.58819 4.04517L5.58839 4.04537L5.94194 3.69182ZM5.99103 3.74091L5.63746 4.09448L5.6414 4.09834L5.99103 3.74091ZM7.48012 4.01091V3.51091C7.4106 3.51091 7.34184 3.52541 7.27824 3.55348L7.48012 4.01091ZM7.54558 4.01091V4.51091C7.61329 4.51091 7.6803 4.49715 7.74254 4.47048L7.54558 4.01091ZM8.36376 2.77545L8.86376 2.77745V2.77545H8.36376ZM10.0001 1V0.5V1ZM11.6365 2.71H11.1365L11.1365 2.71199L11.6365 2.71ZM12.4547 3.94545L12.6566 3.488L12.6516 3.48588L12.4547 3.94545ZM13.9438 3.67545L14.2934 4.03291L14.2973 4.02901L13.9438 3.67545ZM13.9928 3.62636L14.3464 3.97992L14.3466 3.97972L13.9928 3.62636ZM15.1506 3.14644V3.64644V3.14644ZM16.3083 3.62636L15.9546 3.97972L15.9549 3.98011L16.3083 3.62636ZM16.3083 5.94182L15.9549 5.58807L15.9547 5.58827L16.3083 5.94182ZM16.2592 5.99091L15.9056 5.63734L15.9018 5.64128L16.2592 5.99091ZM15.9892 7.48H16.4892C16.4892 7.41048 16.4747 7.34172 16.4466 7.27812L15.9892 7.48ZM15.9892 7.54545H15.4892C15.4892 7.61317 15.503 7.68018 15.5296 7.74242L15.9892 7.54545ZM17.2247 8.36364L17.2227 8.86364H17.2247V8.36364ZM17.2901 11.6364V11.1364L17.2881 11.1364L17.2901 11.6364ZM11.9547 10C11.9547 11.0795 11.0796 11.9545 10.0001 11.9545V12.9545C11.6319 12.9545 12.9547 11.6318 12.9547 10H11.9547ZM10.0001 11.9545C8.92066 11.9545 8.04558 11.0795 8.04558 10H7.04558C7.04558 11.6318 8.36837 12.9545 10.0001 12.9545V11.9545ZM8.04558 10C8.04558 8.92053 8.92066 8.04545 10.0001 8.04545V7.04545C8.36837 7.04545 7.04558 8.36825 7.04558 10H8.04558ZM10.0001 8.04545C11.0796 8.04545 11.9547 8.92053 11.9547 10H12.9547C12.9547 8.36825 11.6319 7.04545 10.0001 7.04545V8.04545ZM15.5972 12.2527C15.448 12.5908 15.4035 12.966 15.4694 13.3297L16.4534 13.1513C16.4231 12.9842 16.4435 12.8118 16.5121 12.6564L15.5972 12.2527ZM15.4694 13.3297C15.5354 13.6934 15.7088 14.029 15.9672 14.2933L16.6821 13.594C16.5633 13.4726 16.4837 13.3184 16.4534 13.1513L15.4694 13.3297ZM15.9711 14.2972L16.0202 14.3463L16.7273 13.6392L16.6782 13.5901L15.9711 14.2972ZM16.0204 14.3465C16.1261 14.452 16.2099 14.5773 16.2671 14.7153L17.1908 14.3324C17.0833 14.073 16.9257 13.8374 16.7271 13.639L16.0204 14.3465ZM16.2671 14.7153C16.3242 14.8532 16.3537 15.0011 16.3537 15.1505H17.3537C17.3537 14.8697 17.2983 14.5917 17.1908 14.3324L16.2671 14.7153ZM16.3537 15.1505C16.3537 15.2998 16.3242 15.4477 16.2671 15.5856L17.1908 15.9686C17.2983 15.7092 17.3537 15.4312 17.3537 15.1505H16.3537ZM16.2671 15.5856C16.2099 15.7236 16.1261 15.8489 16.0204 15.9544L16.7271 16.6619C16.9257 16.4635 17.0833 16.2279 17.1908 15.9686L16.2671 15.5856ZM16.02 15.9548C15.9145 16.0605 15.7891 16.1443 15.6512 16.2015L16.0341 17.1253C16.2935 17.0177 16.5291 16.8602 16.7275 16.6615L16.02 15.9548ZM15.6512 16.2015C15.5132 16.2587 15.3654 16.2881 15.216 16.2881V17.2881C15.4968 17.2881 15.7748 17.2328 16.0341 17.1253L15.6512 16.2015ZM15.216 16.2881C15.0667 16.2881 14.9188 16.2587 14.7809 16.2015L14.3979 17.1253C14.6573 17.2328 14.9353 17.2881 15.216 17.2881V16.2881ZM14.7809 16.2015C14.6429 16.1443 14.5176 16.0605 14.4121 15.9548L13.7046 16.6615C13.903 16.8602 14.1386 17.0177 14.3979 17.1253L14.7809 16.2015ZM14.4119 15.9546L14.3628 15.9055L13.6557 16.6126L13.7048 16.6617L14.4119 15.9546ZM14.3588 15.9017C14.0946 15.6432 13.759 15.4698 13.3953 15.4038L13.2169 16.3878C13.384 16.4181 13.5382 16.4978 13.6596 16.6165L14.3588 15.9017ZM13.3953 15.4038C13.0315 15.3379 12.6564 15.3824 12.3182 15.5317L12.722 16.4465C12.8774 16.3779 13.0497 16.3575 13.2169 16.3878L13.3953 15.4038ZM12.3232 15.5295C11.9915 15.6716 11.7087 15.9076 11.5095 16.2085L12.3432 16.7606C12.4348 16.6224 12.5647 16.514 12.7171 16.4487L12.3232 15.5295ZM11.5095 16.2085C11.3103 16.5093 11.2034 16.8618 11.2019 17.2226L12.2019 17.2265C12.2026 17.0608 12.2517 16.8988 12.3432 16.7606L11.5095 16.2085ZM11.2019 17.2245V17.3636H12.2019V17.2245H11.2019ZM11.2019 17.3636C11.2019 17.665 11.0822 17.9541 10.8691 18.1672L11.5762 18.8743C11.9769 18.4736 12.2019 17.9302 12.2019 17.3636H11.2019ZM10.8691 18.1672C10.656 18.3803 10.367 18.5 10.0656 18.5V19.5C10.6322 19.5 11.1756 19.2749 11.5762 18.8743L10.8691 18.1672ZM10.0656 18.5C9.76419 18.5 9.47516 18.3803 9.26205 18.1672L8.55494 18.8743C8.95559 19.2749 9.49898 19.5 10.0656 19.5V18.5ZM9.26205 18.1672C9.04894 17.9541 8.92921 17.665 8.92921 17.3636H7.92921C7.92921 17.9302 8.15429 18.4736 8.55494 18.8743L9.26205 18.1672ZM8.92921 17.3636V17.29H7.92921V17.3636H8.92921ZM8.92908 17.2783C8.9204 16.9072 8.80027 16.5473 8.58432 16.2453L7.77095 16.8271C7.87017 16.9658 7.92536 17.1312 7.92935 17.3017L8.92908 17.2783ZM8.58432 16.2453C8.36836 15.9434 8.06657 15.7134 7.71817 15.5853L7.37299 16.5238C7.53306 16.5827 7.67172 16.6884 7.77095 16.8271L8.58432 16.2453ZM7.74746 15.5971C7.40928 15.4479 7.03415 15.4033 6.67044 15.4693L6.84885 16.4532C7.01596 16.4229 7.18832 16.4434 7.34369 16.512L7.74746 15.5971ZM6.67044 15.4693C6.30672 15.5352 5.9711 15.7086 5.70685 15.9671L6.40612 16.682C6.52753 16.5632 6.68173 16.4835 6.84885 16.4532L6.67044 15.4693ZM5.70293 15.971L5.65384 16.0201L6.36095 16.7272L6.41004 16.6781L5.70293 15.971ZM5.65364 16.0203C5.54811 16.1259 5.42278 16.2098 5.28483 16.2669L5.66777 17.1907C5.92712 17.0832 6.16273 16.9256 6.36114 16.727L5.65364 16.0203ZM5.28483 16.2669C5.14687 16.3241 4.999 16.3536 4.84967 16.3536V17.3536C5.13042 17.3536 5.40842 17.2982 5.66777 17.1907L5.28483 16.2669ZM4.84967 16.3536C4.70033 16.3536 4.55246 16.3241 4.41451 16.2669L4.03157 17.1907C4.29092 17.2982 4.56892 17.3536 4.84967 17.3536V16.3536ZM4.41451 16.2669C4.27655 16.2098 4.15123 16.1259 4.04569 16.0203L3.33819 16.727C3.5366 16.9256 3.77222 17.0832 4.03157 17.1907L4.41451 16.2669ZM4.0453 16.0199C3.93964 15.9143 3.85582 15.789 3.79864 15.6511L2.87487 16.034C2.98238 16.2934 3.13995 16.529 3.33858 16.7274L4.0453 16.0199ZM3.79864 15.6511C3.74145 15.5131 3.71202 15.3652 3.71202 15.2159H2.71202C2.71202 15.4967 2.76735 15.7747 2.87487 16.034L3.79864 15.6511ZM3.71202 15.2159C3.71202 15.0666 3.74145 14.9187 3.79864 14.7807L2.87487 14.3978C2.76735 14.6572 2.71202 14.9352 2.71202 15.2159H3.71202ZM3.79864 14.7807C3.85582 14.6428 3.93964 14.5175 4.0453 14.4119L3.33858 13.7044C3.13995 13.9028 2.98238 14.1385 2.87487 14.3978L3.79864 14.7807ZM4.04549 14.4117L4.09458 14.3626L3.38748 13.6555L3.33839 13.7046L4.04549 14.4117ZM4.09846 14.3587C4.35694 14.0945 4.53034 13.7589 4.59629 13.3951L3.61233 13.2167C3.58203 13.3838 3.50236 13.538 3.3836 13.6595L4.09846 14.3587ZM4.59629 13.3951C4.66223 13.0314 4.61771 12.6563 4.46846 12.3181L3.5536 12.7219C3.62217 12.8773 3.64263 13.0496 3.61233 13.2167L4.59629 13.3951ZM4.4706 12.323C4.32847 11.9914 4.09248 11.7086 3.79167 11.5094L3.23952 12.3431C3.37773 12.4347 3.48616 12.5646 3.55146 12.717L4.4706 12.323ZM3.79167 11.5094C3.49086 11.3102 3.13836 11.2033 2.77757 11.2018L2.77358 12.2018C2.93935 12.2025 3.10131 12.2516 3.23952 12.3431L3.79167 11.5094ZM2.77558 11.2018H2.63649V12.2018H2.77558V11.2018ZM2.63649 11.2018C2.3351 11.2018 2.04606 11.0821 1.83296 10.869L1.12585 11.5761C1.52649 11.9767 2.06989 12.2018 2.63649 12.2018V11.2018ZM1.83296 10.869C1.61985 10.6559 1.50012 10.3668 1.50012 10.0655H0.500122C0.500122 10.6321 0.725203 11.1754 1.12585 11.5761L1.83296 10.869ZM1.50012 10.0655C1.50012 9.76407 1.61985 9.47503 1.83296 9.26192L1.12585 8.55482C0.725203 8.95546 0.500122 9.49886 0.500122 10.0655H1.50012ZM1.83296 9.26192C2.04606 9.04881 2.3351 8.92909 2.63649 8.92909V7.92909C2.06989 7.92909 1.52649 8.15417 1.12585 8.55482L1.83296 9.26192ZM2.63649 8.92909H2.71012V7.92909H2.63649V8.92909ZM2.72181 8.92895C3.09293 8.92027 3.45285 8.80015 3.75479 8.58419L3.17304 7.77082C3.03431 7.87005 2.86894 7.92524 2.69843 7.92923L2.72181 8.92895ZM3.75479 8.58419C4.05672 8.36824 4.28671 8.06644 4.41484 7.71805L3.47631 7.37286C3.41743 7.53294 3.31177 7.6716 3.17304 7.77082L3.75479 8.58419ZM4.40301 7.74734C4.55226 7.40916 4.59678 7.03403 4.53083 6.67031L3.54687 6.84872C3.57718 7.01584 3.55672 7.18819 3.48815 7.34357L4.40301 7.74734ZM4.53083 6.67031C4.46488 6.3066 4.29149 5.97098 4.03301 5.70673L3.31815 6.406C3.43691 6.52741 3.51657 6.68161 3.54687 6.84872L4.53083 6.67031ZM4.02913 5.70281L3.98004 5.65372L3.27293 6.36083L3.32202 6.40992L4.02913 5.70281ZM3.97984 5.65352C3.87419 5.54799 3.79037 5.42266 3.73318 5.2847L2.80941 5.66764C2.91692 5.927 3.0745 6.16261 3.27313 6.36102L3.97984 5.65352ZM3.73318 5.2847C3.676 5.14675 3.64656 4.99888 3.64656 4.84955H2.64656C2.64656 5.1303 2.7019 5.40829 2.80941 5.66764L3.73318 5.2847ZM3.64656 4.84955C3.64656 4.70021 3.676 4.55234 3.73318 4.41439L2.80941 4.03145C2.7019 4.2908 2.64656 4.56879 2.64656 4.84955H3.64656ZM3.73318 4.41439C3.79037 4.27643 3.87419 4.15111 3.97984 4.04557L3.27313 3.33807C3.0745 3.53648 2.91692 3.7721 2.80941 4.03145L3.73318 4.41439ZM3.98024 4.04517C4.08577 3.93952 4.2111 3.8557 4.34905 3.79852L3.96611 2.87474C3.70676 2.98225 3.47115 3.13983 3.27274 3.33846L3.98024 4.04517ZM4.34905 3.79852C4.48701 3.74133 4.63488 3.71189 4.78421 3.71189V2.71189C4.50346 2.71189 4.22546 2.76723 3.96611 2.87474L4.34905 3.79852ZM4.78421 3.71189C4.93355 3.71189 5.08142 3.74133 5.21937 3.79852L5.60231 2.87474C5.34296 2.76723 5.06496 2.71189 4.78421 2.71189V3.71189ZM5.21937 3.79852C5.35732 3.8557 5.48265 3.93952 5.58819 4.04517L6.29569 3.33846C6.09728 3.13983 5.86166 2.98225 5.60231 2.87474L5.21937 3.79852ZM5.58839 4.04537L5.63748 4.09446L6.34458 3.38736L6.29549 3.33826L5.58839 4.04537ZM5.6414 4.09834C5.90564 4.35682 6.24127 4.53022 6.60498 4.59616L6.78339 3.61221C6.61628 3.58191 6.46207 3.50224 6.34066 3.38348L5.6414 4.09834ZM6.60498 4.59616C6.9687 4.66211 7.34383 4.61759 7.682 4.46834L7.27824 3.55348C7.12286 3.62205 6.9505 3.64251 6.78339 3.61221L6.60498 4.59616ZM7.48012 4.51091H7.54558V3.51091H7.48012V4.51091ZM7.74254 4.47048C8.07416 4.32835 8.35699 4.09236 8.5562 3.79155L7.72245 3.2394C7.63092 3.37761 7.50098 3.48604 7.34861 3.55134L7.74254 4.47048ZM8.5562 3.79155C8.75541 3.49074 8.86232 3.13824 8.86375 2.77745L7.86376 2.77346C7.8631 2.93923 7.81398 3.10119 7.72245 3.2394L8.5562 3.79155ZM8.86376 2.77545V2.63636H7.86376V2.77545H8.86376ZM8.86376 2.63636C8.86376 2.33498 8.98348 2.04594 9.19659 1.83283L8.48949 1.12573C8.08884 1.52637 7.86376 2.06976 7.86376 2.63636H8.86376ZM9.19659 1.83283C9.4097 1.61972 9.69874 1.5 10.0001 1.5V0.5C9.43352 0.5 8.89013 0.725081 8.48949 1.12573L9.19659 1.83283ZM10.0001 1.5C10.3015 1.5 10.5905 1.61972 10.8037 1.83283L11.5108 1.12573C11.1101 0.725081 10.5667 0.5 10.0001 0.5V1.5ZM10.8037 1.83283C11.0168 2.04594 11.1365 2.33498 11.1365 2.63636H12.1365C12.1365 2.06976 11.9114 1.52637 11.5108 1.12573L10.8037 1.83283ZM11.1365 2.63636V2.71H12.1365V2.63636H11.1365ZM11.1365 2.71199C11.1379 3.07279 11.2448 3.42528 11.444 3.72609L12.2778 3.17394C12.1863 3.03573 12.1371 2.87377 12.1365 2.70801L11.1365 2.71199ZM11.444 3.72609C11.6433 4.0269 11.9261 4.2629 12.2577 4.40502L12.6516 3.48588C12.4993 3.42058 12.3693 3.31215 12.2778 3.17394L11.444 3.72609ZM12.2528 4.40289C12.591 4.55214 12.9661 4.59666 13.3298 4.53071L13.1514 3.54675C12.9843 3.57705 12.8119 3.5566 12.6566 3.48802L12.2528 4.40289ZM13.3298 4.53071C13.6935 4.46476 14.0291 4.29137 14.2934 4.03289L13.5941 3.31802C13.4727 3.43678 13.3185 3.51645 13.1514 3.54675L13.3298 4.53071ZM14.2973 4.02901L14.3464 3.97992L13.6393 3.27281L13.5902 3.3219L14.2973 4.02901ZM14.3466 3.97972C14.4521 3.87407 14.5775 3.79025 14.7154 3.73306L14.3325 2.80929C14.0731 2.9168 13.8375 3.07437 13.6391 3.27301L14.3466 3.97972ZM14.7154 3.73306C14.8534 3.67587 15.0012 3.64644 15.1506 3.64644V2.64644C14.8698 2.64644 14.5918 2.70178 14.3325 2.80929L14.7154 3.73306ZM15.1506 3.64644C15.2999 3.64644 15.4478 3.67587 15.5857 3.73306L15.9687 2.80929C15.7093 2.70178 15.4313 2.64644 15.1506 2.64644V3.64644ZM15.5857 3.73306C15.7237 3.79025 15.849 3.87406 15.9546 3.97972L16.6621 3.27301C16.4636 3.07438 16.228 2.9168 15.9687 2.80929L15.5857 3.73306ZM15.9549 3.98011C16.0606 4.08565 16.1444 4.21098 16.2016 4.34893L17.1254 3.96599C17.0179 3.70664 16.8603 3.47102 16.6617 3.27261L15.9549 3.98011ZM16.2016 4.34893C16.2588 4.48688 16.2882 4.63476 16.2882 4.78409H17.2882C17.2882 4.50334 17.2329 4.22534 17.1254 3.96599L16.2016 4.34893ZM16.2882 4.78409C16.2882 4.93343 16.2588 5.0813 16.2016 5.21925L17.1254 5.60219C17.2329 5.34284 17.2882 5.06484 17.2882 4.78409H16.2882ZM16.2016 5.21925C16.1444 5.3572 16.0606 5.48253 15.9549 5.58807L16.6617 6.29557C16.8603 6.09716 17.0179 5.86154 17.1254 5.60219L16.2016 5.21925ZM15.9547 5.58827L15.9057 5.63736L16.6128 6.34446L16.6619 6.29537L15.9547 5.58827ZM15.9018 5.64128C15.6433 5.90552 15.4699 6.24114 15.404 6.60486L16.3879 6.78327C16.4182 6.61616 16.4979 6.46195 16.6166 6.34054L15.9018 5.64128ZM15.404 6.60486C15.338 6.96857 15.3825 7.34371 15.5318 7.68188L16.4466 7.27812C16.3781 7.12274 16.3576 6.95038 16.3879 6.78327L15.404 6.60486ZM15.4892 7.48V7.54545H16.4892V7.48H15.4892ZM15.5296 7.74242C15.6718 8.07404 15.9078 8.35686 16.2086 8.55608L16.7607 7.72233C16.6225 7.6308 16.5141 7.50085 16.4488 7.34849L15.5296 7.74242ZM16.2086 8.55608C16.5094 8.75529 16.8619 8.86219 17.2227 8.86363L17.2267 7.86364C17.0609 7.86298 16.8989 7.81386 16.7607 7.72233L16.2086 8.55608ZM17.2247 8.86364H17.3638V7.86364H17.2247V8.86364ZM17.3638 8.86364C17.6651 8.86364 17.9542 8.98336 18.1673 9.19647L18.8744 8.48936C18.4737 8.08872 17.9304 7.86364 17.3638 7.86364V8.86364ZM18.1673 9.19647C18.3804 9.40958 18.5001 9.69862 18.5001 10H19.5001C19.5001 9.4334 19.275 8.89001 18.8744 8.48936L18.1673 9.19647ZM18.5001 10C18.5001 10.3014 18.3804 10.5904 18.1673 10.8035L18.8744 11.5106C19.275 11.11 19.5001 10.5666 19.5001 10H18.5001ZM18.1673 10.8035C17.9542 11.0166 17.6651 11.1364 17.3638 11.1364V12.1364C17.9304 12.1364 18.4737 11.9113 18.8744 11.5106L18.1673 10.8035ZM17.3638 11.1364H17.2901V12.1364H17.3638V11.1364ZM17.2881 11.1364C16.9273 11.1378 16.5748 11.2447 16.274 11.4439L16.8262 12.2777C16.9644 12.1861 17.1263 12.137 17.2921 12.1364L17.2881 11.1364ZM16.274 11.4439C15.9732 11.6431 15.7372 11.926 15.5951 12.2576L16.5142 12.6515C16.5795 12.4991 16.688 12.3692 16.8262 12.2777L16.274 11.4439Z" fill="white"/>
</svg>
